<?xml version="1.0" encoding="utf-8"?>
<!-- Generator: Adobe Illustrator 29.1.0, SVG Export Plug-In . SVG Version: 9.03 Build 55587)  -->
<svg version="1.0" id="Layer_1" xmlns="http://www.w3.org/2000/svg" xmlns:xlink="http://www.w3.org/1999/xlink" x="0px" y="0px"
	 viewBox="0 0 1896.14 754.83" style="enable-background:new 0 0 1896.14 754.83;" xml:space="preserve">
<style type="text/css">
	.st0{fill:#161616;}
	.st1{fill:url(#SVGID_1_);}
	.st2{fill:#F2F2F2;}
	.st3{fill:url(#SVGID_00000109744652763038783180000015319294214868651432_);}
	.st4{fill:url(#SVGID_00000043433556375225156800000002469535842091311273_);}
	.st5{fill:url(#SVGID_00000120556882701150711500000013038022742298645658_);}
	.st6{fill:url(#SVGID_00000103974391671949504030000002244994733967598518_);}
	.st7{fill:url(#SVGID_00000059301876730809873940000006086158656458110905_);}
	.st8{fill:url(#SVGID_00000158748044545213160490000006380023430098343334_);}
	.st9{fill:url(#SVGID_00000142148741775005812090000016203399202901998470_);}
	.st10{fill:url(#SVGID_00000138533820655726350780000008474949086833284259_);}
	.st11{fill:url(#SVGID_00000062193760785330367990000014511929842709278383_);}
	.st12{fill:url(#SVGID_00000101095128144818242090000002828183767292742325_);}
	.st13{fill:url(#SVGID_00000107577889412275517010000005476215713352651915_);}
</style>
<g>
	<path class="st0" d="M608.94,518.35c0,0,0-104.23,0-135.9c0-50.33-25.17-100.66-95.63-100.66c-35.27,0-53.2,17.23-60.81,27.59
		c-1.47,2-4.63,0.95-4.63-1.52v-76.4h-50.33v286.89h50.33c0,0,0-108.1,0-135.9c0-40.27,24.83-60.4,55.21-60.4
		c25.32,0,55.52,20.13,55.52,60.4c0,22.87,0,135.9,0,135.9H608.94z"/>
	<path class="st0" d="M261.65,327.08v5.04h0c11.12,0,20.13,9.01,20.13,20.13v75.5c0,30.2,10.07,50.33,50.33,50.33
		c18.96,0,25.17-0.08,25.17-0.08v40.35c0,0-18.17,0-35.24,0c-50.33,0-90.59-20.14-90.59-110.74c0-29.07,0-176.16,0-176.16h50.33
		l0,55.45h75.5v40.18H261.65z"/>
	<path class="st0" d="M933.84,518.35l55.11-72.87c2.71-3.59,8.1-3.59,10.81,0l55.11,72.87h54L933.84,286.9h-54l83.64,110.6
		c2.29,3.03,2.29,7.22,0,10.25l-83.64,110.6H933.84z"/>
	<linearGradient id="SVGID_1_" gradientUnits="userSpaceOnUse" x1="1028.1136" y1="306.9907" x2="1108.8837" y2="306.9907">
		<stop  offset="3.554894e-03" style="stop-color:#7557FC"/>
		<stop  offset="0.9968" style="stop-color:#D5AFBE"/>
	</linearGradient>
	<path class="st1" d="M1035.96,327.08h35.44c4.47,0,8.68-2.09,11.37-5.66l26.11-34.53h-72.93c-4.33,0-7.84,3.51-7.84,7.84v24.5
		C1028.11,323.57,1031.62,327.08,1035.96,327.08z"/>
	<path class="st0" d="M649.2,286.82c0,0,0,104.23,0,135.9c0,50.33,25.17,100.66,95.63,100.66c37.26,0,55.18-19.23,62-29.28
		c1.29-1.89,4.22-1.25,4.59,1.01l3.87,23.23h45.3V286.82h-50.33c0,0,0,108.1,0,135.9c0,40.27-24.83,60.4-55.21,60.4
		c-25.32,0-55.52-20.13-55.52-60.4c0-22.87,0-135.9,0-135.9H649.2z"/>
	<g>
		<path class="st0" d="M1165.56,432.06v-50.33h23.08c8.77,0,14.88,5.18,14.88,12.65c0,5.39-3.81,9.85-9.71,11.72
			c6.54,1.29,10.86,6.04,10.86,12.22c0,8.12-6.33,13.73-15.46,13.73H1165.56z M1171.53,403.74h16.75c5.39,0,9.13-3.59,9.13-8.7
			c0-4.6-3.38-7.77-8.2-7.77h-17.69V403.74z M1171.53,426.53h18.33c5.03,0,8.56-3.59,8.56-8.84c0-5.61-4.38-8.56-9.78-8.56h-17.11
			V426.53z"/>
		<path class="st0" d="M1214.09,415.17v-33.43h6.04v33.29c0,7.98,6.33,12.22,14.02,12.22s14.02-4.24,14.02-12.22v-33.29h6.04v33.43
			c0,9.56-7.12,17.76-20.06,17.69C1221.14,432.85,1214.09,424.73,1214.09,415.17z"/>
		<path class="st0" d="M1263.49,416.82h6.33c0.72,6.47,6.83,10.57,15.67,10.57c7.69,0,11.72-3.16,11.72-8.41
			c0-5.1-4.46-7.05-9.27-8.56l-8.7-2.73c-4.03-1.29-14.16-3.45-14.16-13.3c0-8.13,6.69-13.45,17.11-13.45
			c11.5,0,18.62,5.82,19.41,16.54h-6.26c-0.5-7.12-5.46-11.07-13.45-11.07c-6.33,0-10.78,2.88-10.78,7.69
			c0,5.54,5.75,6.69,10.06,8.05l8.12,2.52c6.4,2.01,14.09,4.53,14.09,14.02c0,8.84-6.76,14.16-17.9,14.16
			C1272.84,432.85,1264.14,426.31,1263.49,416.82z"/>
		<path class="st0" d="M1312.52,432.06v-50.33h6.04v50.33H1312.52z"/>
		<path class="st0" d="M1330.79,432.06v-50.33h6.9l28.47,41.7v-41.7h6.04v50.33h-6.9l-28.47-41.7v41.7H1330.79z"/>
		<path class="st0" d="M1384.42,432.06v-50.33h34.37v5.54h-28.4v15.89h25.52v5.39h-25.52v17.97h29.05v5.54H1384.42z"/>
		<path class="st0" d="M1426.56,416.82h6.33c0.72,6.47,6.83,10.57,15.67,10.57c7.69,0,11.72-3.16,11.72-8.41
			c0-5.1-4.46-7.05-9.27-8.56l-8.7-2.73c-4.03-1.29-14.16-3.45-14.16-13.3c0-8.13,6.69-13.45,17.11-13.45
			c11.5,0,18.62,5.82,19.41,16.54h-6.26c-0.5-7.12-5.46-11.07-13.45-11.07c-6.33,0-10.78,2.88-10.78,7.69
			c0,5.54,5.75,6.69,10.06,8.05l8.12,2.52c6.4,2.01,14.09,4.53,14.09,14.02c0,8.84-6.76,14.16-17.9,14.16
			C1435.9,432.85,1427.2,426.31,1426.56,416.82z"/>
		<path class="st0" d="M1473.08,416.82h6.33c0.72,6.47,6.83,10.57,15.68,10.57c7.69,0,11.72-3.16,11.72-8.41
			c0-5.1-4.46-7.05-9.28-8.56l-8.7-2.73c-4.03-1.29-14.16-3.45-14.16-13.3c0-8.13,6.69-13.45,17.11-13.45
			c11.5,0,18.62,5.82,19.41,16.54h-6.26c-0.5-7.12-5.46-11.07-13.45-11.07c-6.33,0-10.79,2.88-10.79,7.69
			c0,5.54,5.75,6.69,10.07,8.05l8.12,2.52c6.4,2.01,14.09,4.53,14.09,14.02c0,8.84-6.76,14.16-17.9,14.16
			C1482.42,432.85,1473.72,426.31,1473.08,416.82z"/>
		<path class="st0" d="M1535.77,417.97c0-8.12,5.97-12.15,12.08-15.24c-3.38-3.81-5.39-6.9-5.39-10.86
			c0-6.26,5.25-10.93,12.22-10.93c6.97,0,12.22,4.6,12.22,10.86c0,6.04-4.82,9.2-10.21,11.94l13.01,13.37
			c1.51-3.59,2.3-7.98,2.3-13.09h6.11c0,6.97-1.44,12.87-4.03,17.54l7.12,7.33l-4.53,3.95l-6.18-6.47
			c-4.03,4.17-9.49,6.47-16.03,6.47C1543.46,432.85,1535.77,426.74,1535.77,417.97z M1566.54,422.29l-15.24-15.89
			c-5.03,2.66-9.35,5.68-9.35,11.22c0,5.75,4.67,9.71,12.51,9.71C1559.57,427.32,1563.59,425.52,1566.54,422.29z M1560.72,391.94
			c0-3.31-2.59-5.75-5.97-5.75c-3.45,0-6.11,2.52-6.11,5.9c0,2.73,1.8,5.25,4.53,8.12C1557.41,398.05,1560.72,395.68,1560.72,391.94
			z"/>
		<path class="st0" d="M1179.37,518.34v-44.79h-17.4v-5.54h40.84v5.54h-17.4v44.79H1179.37z"/>
		<path class="st0" d="M1211.43,518.34v-50.33h34.37v5.54h-28.4v15.89h25.53v5.39h-25.53v17.97h29.05v5.54H1211.43z"/>
		<path class="st0" d="M1253.78,493.04c0-14.96,9.13-25.81,24.59-25.81c12.8,0,21.57,7.48,23.73,20.13h-6.25
			c-1.87-9.2-8.34-14.6-17.47-14.6c-11.29,0-18.26,7.84-18.26,20.28c0,12.87,6.97,20.56,18.26,20.56c9.42,0,15.53-5.11,17.47-14.6
			h6.25c-2.23,13.09-10.57,20.13-23.73,20.13C1262.92,519.13,1253.78,508.28,1253.78,493.04z"/>
		<path class="st0" d="M1312.02,518.34v-50.33h6.04v21.64h30.92v-21.64h6.04v50.33h-6.04v-23.15h-30.92v23.15H1312.02z"/>
		<path class="st0" d="M1367.24,518.34v-50.33h6.9l28.47,41.7v-41.7h6.04v50.33h-6.9l-28.47-41.7v41.7H1367.24z"/>
		<path class="st0" d="M1418.58,493.04c0-14.96,9.13-25.81,24.23-25.81c14.52,0,24.38,10.21,24.38,25.81
			c0,15.1-9.13,26.1-24.38,26.1C1428.43,519.13,1418.58,508.92,1418.58,493.04z M1461,493.04c0-12.44-7.05-20.28-18.19-20.28
			c-11.07,0-18.05,7.84-18.05,20.28c0,12.58,6.97,20.56,18.05,20.56C1454.02,513.6,1461,505.62,1461,493.04z"/>
		<path class="st0" d="M1477.1,518.34v-50.33h6.04v44.79h26.96v5.54H1477.1z"/>
		<path class="st0" d="M1513.2,493.04c0-14.96,9.13-25.81,24.23-25.81c14.52,0,24.38,10.21,24.38,25.81c0,15.1-9.13,26.1-24.38,26.1
			C1523.05,519.13,1513.2,508.92,1513.2,493.04z M1555.62,493.04c0-12.44-7.05-20.28-18.19-20.28c-11.07,0-18.05,7.84-18.05,20.28
			c0,12.58,6.97,20.56,18.05,20.56C1548.64,513.6,1555.62,505.62,1555.62,493.04z"/>
		<path class="st0" d="M1569.42,493.04c0-14.96,9.13-25.81,24.45-25.81c12.8,0,21.64,7.76,23.73,20.13h-6.25
			c-1.87-9.2-8.27-14.6-17.47-14.6c-11.14,0-18.12,7.69-18.12,20.28c0,12.73,7.12,20.56,17.47,20.56c9.42,0,15.39-6.4,15.39-15.53
			h-16.97v-5.18h17.69c5.25,0,8.05,2.66,8.05,7.55v17.9h-5.39v-17.18h-0.14c-0.93,11.07-7.48,17.97-18.62,17.97
			C1579.34,519.13,1569.42,508.92,1569.42,493.04z"/>
		<path class="st0" d="M1639.45,518.34v-22.22l-19.12-28.11h7.12l15.1,22.36l15.03-22.36h7.12l-19.2,28.11v22.22H1639.45z"/>
	</g>
	<g>
		<path class="st0" d="M1162.53,306.89c0-11.4,8.18-19.95,20.02-19.95c11.4,0,19.95,8.17,19.95,19.95c0,11.4-8.17,20.02-19.95,20.02
			C1171.15,326.91,1162.53,318.74,1162.53,306.89z M1198.08,306.89c0-9.07-6.38-15.9-15.53-15.9c-8.92,0-15.6,6.52-15.6,15.9
			c0,9.07,6.37,15.97,15.6,15.97C1191.4,322.87,1198.08,316.34,1198.08,306.89z M1174.98,315.97v-18.15h9.82
			c3.68,0,6.22,2.25,6.22,5.4c0,2.33-1.5,4.12-3.67,4.88c1.2,0.23,2.03,0.82,2.47,2.25l1.8,5.62h-3.83l-1.5-4.8
			c-0.22-0.82-0.82-1.27-1.8-1.27h-5.78v6.07H1174.98z M1178.73,306.67h6.15c1.65,0,2.47-1.35,2.47-2.77c0-1.35-0.82-2.7-2.47-2.7
			h-6.15V306.67z"/>
	</g>
</g>
</svg>
