<?xml version="1.0" encoding="utf-8"?>
<!-- Generator: Adobe Illustrator 29.1.0, SVG Export Plug-In . SVG Version: 9.03 Build 55587)  -->
<svg version="1.0" id="Layer_1" xmlns="http://www.w3.org/2000/svg" xmlns:xlink="http://www.w3.org/1999/xlink" x="0px" y="0px"
	 viewBox="0 0 1340.33 754.83" style="enable-background:new 0 0 1340.33 754.83;" xml:space="preserve">
<style type="text/css">
	.st0{fill:#161616;}
	.st1{fill:url(#SVGID_1_);}
	.st2{fill:#F2F2F2;}
	.st3{fill:url(#SVGID_00000151537374168079804010000013086084275661672337_);}
	.st4{fill:url(#SVGID_00000177448504282533070200000006558056838714381979_);}
	.st5{fill:url(#SVGID_00000068674355373644558750000008691796363051889281_);}
	.st6{fill:url(#SVGID_00000132082407935231645450000012788441201286154650_);}
	.st7{fill:url(#SVGID_00000003827552009470044400000008319653151162996134_);}
	.st8{fill:url(#SVGID_00000005233144336670829790000003900697681333750456_);}
	.st9{fill:url(#SVGID_00000081643690678693835460000006569908132719558835_);}
	.st10{fill:url(#SVGID_00000179626907158416915650000014663475295783673233_);}
	.st11{fill:url(#SVGID_00000177445453354981850060000008051650813336538274_);}
	.st12{fill:url(#SVGID_00000088135252337723183510000015096381370512165023_);}
	.st13{fill:url(#SVGID_00000165207570683625054150000010497581326918158269_);}
</style>
<g>
	<path class="st0" d="M608.94,518.35c0,0,0-104.23,0-135.9c0-50.33-25.17-100.66-95.63-100.66c-35.27,0-53.2,17.23-60.81,27.59
		c-1.47,2-4.63,0.95-4.63-1.52v-76.4h-50.33v286.89h50.33c0,0,0-108.1,0-135.9c0-40.27,24.83-60.4,55.21-60.4
		c25.32,0,55.52,20.13,55.52,60.4c0,22.87,0,135.9,0,135.9H608.94z"/>
	<path class="st0" d="M261.65,327.08v5.04h0c11.12,0,20.13,9.01,20.13,20.13v75.5c0,30.2,10.07,50.33,50.33,50.33
		c18.96,0,25.17-0.08,25.17-0.08v40.35c0,0-18.17,0-35.24,0c-50.33,0-90.59-20.14-90.59-110.74c0-29.07,0-176.16,0-176.16h50.33
		l0,55.45h75.5v40.18H261.65z"/>
	<path class="st0" d="M933.84,518.35l55.11-72.87c2.71-3.59,8.1-3.59,10.81,0l55.11,72.87h54L933.84,286.9h-54l83.64,110.6
		c2.29,3.03,2.29,7.22,0,10.25l-83.64,110.6H933.84z"/>
	<linearGradient id="SVGID_1_" gradientUnits="userSpaceOnUse" x1="1028.1136" y1="306.9907" x2="1108.8837" y2="306.9907">
		<stop  offset="3.554894e-03" style="stop-color:#7557FC"/>
		<stop  offset="0.9968" style="stop-color:#D5AFBE"/>
	</linearGradient>
	<path class="st1" d="M1035.96,327.08h35.44c4.47,0,8.68-2.09,11.37-5.66l26.11-34.53h-72.93c-4.33,0-7.84,3.51-7.84,7.84v24.5
		C1028.11,323.57,1031.62,327.08,1035.96,327.08z"/>
	<path class="st0" d="M649.2,286.82c0,0,0,104.23,0,135.9c0,50.33,25.17,100.66,95.63,100.66c37.26,0,55.18-19.23,62-29.28
		c1.29-1.89,4.22-1.25,4.59,1.01l3.87,23.23h45.3V286.82h-50.33c0,0,0,108.1,0,135.9c0,40.27-24.83,60.4-55.21,60.4
		c-25.32,0-55.52-20.13-55.52-60.4c0-22.87,0-135.9,0-135.9H649.2z"/>
</g>
</svg>
